<?xml version="1.0" encoding="UTF-8"?>
<svg id="Capa_1" data-name="Capa 1" xmlns="http://www.w3.org/2000/svg" viewBox="0 0 500 500">
  <defs>
    <style>
      .cls-1 {
        fill: #9ab9a3;
      }

      .cls-1, .cls-2 {
        stroke-width: 0px;
      }

      .cls-2 {
        fill: #fff;
      }
    </style>
  </defs>
  <circle class="cls-1" cx="250" cy="251.9" r="224.84"/>
  <g>
    <path class="cls-2" d="M280.03,356.23h-101.59c-15.84,0-28.72-12.88-28.72-28.72v-162.07c0-15.84,12.88-28.72,28.72-28.72h143.07c15.84,0,28.72,12.88,28.72,28.72v100.29h-6.1v-100.29c0-12.47-10.15-22.62-22.62-22.62h-143.07c-12.47,0-22.62,10.15-22.62,22.62v162.07c0,12.47,10.15,22.62,22.62,22.62h101.59v6.1Z"/>
    <g>
      <path class="cls-2" d="M298.21,373.18c-4.38,0-8.92-.33-13.63-.99-1.08-.15-1.99-.86-2.4-1.87-9.19-22.52-8.96-42.96.69-60.77,22-40.6,84.64-53.09,87.3-53.6.86-.16,1.76.05,2.45.59.69.54,1.12,1.35,1.17,2.23.16,2.7,3.47,66.49-30.47,97.8-11.98,11.05-27.11,16.61-45.11,16.61ZM287.17,366.39c21.39,2.61,38.87-2.19,52-14.28,27.41-25.27,28.79-75.51,28.62-89.37-13.47,3.25-61.83,16.96-79.57,49.74-8.5,15.7-8.85,33.83-1.05,53.91Z"/>
      <path class="cls-2" d="M285,372.23c-.66,0-1.31-.21-1.87-.64-1.33-1.03-1.57-2.95-.53-4.28l85.74-110.23c1.03-1.33,2.95-1.57,4.28-.54,1.33,1.03,1.57,2.95.53,4.28l-85.74,110.23c-.6.77-1.5,1.18-2.41,1.18Z"/>
      <path class="cls-2" d="M294.66,359.81c-1.09,0-2.15-.59-2.69-1.62l-15.2-28.58c-.79-1.49-.23-3.33,1.26-4.12,1.48-.79,3.33-.23,4.12,1.26l15.2,28.58c.79,1.49.23,3.33-1.26,4.12-.46.24-.95.36-1.43.36Z"/>
      <path class="cls-2" d="M334.9,308.07c-1.09,0-2.15-.59-2.69-1.62l-14.6-27.46c-.79-1.49-.23-3.33,1.26-4.12,1.48-.79,3.33-.23,4.12,1.26l14.6,27.46c.79,1.49.23,3.33-1.26,4.12-.46.24-.95.36-1.43.36Z"/>
      <path class="cls-2" d="M338.46,359.9c-.24,0-.48-.03-.73-.09l-36.85-9.02c-1.64-.4-2.64-2.05-2.24-3.69s2.06-2.63,3.69-2.24l36.85,9.02c1.64.4,2.64,2.05,2.24,3.69-.34,1.39-1.59,2.33-2.96,2.33Z"/>
      <path class="cls-2" d="M368.62,297.25c-.24,0-.48-.03-.73-.09l-21.25-5.2c-1.64-.4-2.64-2.05-2.24-3.69.4-1.64,2.05-2.64,3.69-2.24l21.25,5.2c1.64.4,2.64,2.05,2.24,3.69-.34,1.39-1.59,2.33-2.96,2.33Z"/>
      <path class="cls-2" d="M359.74,330.62c-.24,0-.48-.03-.73-.09l-35.6-8.71c-1.64-.4-2.64-2.05-2.24-3.69.4-1.64,2.07-2.64,3.69-2.24l35.6,8.71c1.64.4,2.64,2.05,2.24,3.69-.34,1.39-1.59,2.33-2.96,2.33Z"/>
      <path class="cls-2" d="M314.24,334.63c-1.09,0-2.15-.59-2.69-1.62l-18.52-34.83c-.79-1.49-.23-3.33,1.26-4.12,1.48-.79,3.33-.23,4.12,1.26l18.52,34.83c.79,1.49.23,3.33-1.26,4.12-.46.24-.95.36-1.43.36Z"/>
    </g>
    <g>
      <path class="cls-2" d="M389.55,155.89c-.98,0-1.94-.47-2.53-1.35-27.39-40.65-71.05-66.68-119.78-71.42-55.64-5.42-109.58,17.6-144.26,61.55-1.04,1.32-2.96,1.55-4.28.51-1.32-1.04-1.55-2.96-.51-4.28,35.97-45.59,91.91-69.45,149.64-63.84,50.55,4.92,95.84,31.92,124.25,74.08.94,1.4.57,3.29-.83,4.23-.52.35-1.11.52-1.7.52Z"/>
      <path class="cls-2" d="M389.7,156.38c-.4,0-.79-.08-1.16-.23l-20.35-8.4c-1.56-.64-2.3-2.43-1.66-3.98.64-1.55,2.43-2.3,3.98-1.65l16.41,6.78,1.06-16.55c.11-1.68,1.59-2.96,3.24-2.85,1.68.11,2.96,1.56,2.85,3.24l-1.33,20.8c-.06.98-.6,1.87-1.43,2.39-.49.31-1.05.46-1.61.46Z"/>
    </g>
    <g>
      <path class="cls-2" d="M261.89,415.96c-1.6,0-2.94-1.24-3.04-2.86-.1-1.68,1.18-3.13,2.86-3.23,48.92-3,93.49-27.44,122.28-67.04,32.88-45.22,40.38-103.37,20.08-155.55-.61-1.57.16-3.34,1.74-3.95,1.57-.61,3.34.17,3.95,1.74,21.06,54.12,13.27,114.44-20.83,161.35-29.86,41.08-76.1,66.42-126.84,69.54-.06,0-.13,0-.19,0Z"/>
      <path class="cls-2" d="M278.64,427.54c-.59,0-1.19-.17-1.71-.53l-17.25-11.69c-.81-.55-1.31-1.46-1.34-2.44-.03-.98.42-1.92,1.21-2.51l17.56-13.28c1.34-1.02,3.25-.75,4.27.59,1.02,1.34.75,3.26-.59,4.27l-14.16,10.71,13.73,9.3c1.39.95,1.76,2.84.81,4.24-.59.87-1.55,1.34-2.53,1.34Z"/>
    </g>
    <g>
      <path class="cls-2" d="M230.39,414.9c-.13,0-.25,0-.38-.02-57.63-7.18-107-42.7-132.07-95-21.95-45.8-22.29-98.52-.92-144.65.71-1.53,2.52-2.19,4.05-1.49,1.53.71,2.19,2.52,1.49,4.05-20.6,44.47-20.28,95.3.88,139.45,24.17,50.42,71.77,84.66,127.33,91.58,1.67.21,2.86,1.73,2.65,3.4-.19,1.54-1.51,2.67-3.02,2.67Z"/>
      <path class="cls-2" d="M103.46,200.93c-1.48,0-2.78-1.08-3.01-2.59l-2.69-17.55-14.71,7.66c-1.49.78-3.34.2-4.11-1.3-.78-1.49-.2-3.33,1.3-4.11l18.49-9.62c.87-.45,1.91-.46,2.79-.01.88.44,1.49,1.29,1.63,2.26l3.34,21.76c.26,1.66-.89,3.22-2.55,3.48-.16.02-.31.04-.47.04Z"/>
    </g>
    <path class="cls-2" d="M350.22,225.72h-74.98c-10.03,0-18.19-8.16-18.19-18.19v-70.81h62.96c16.66,0,30.21,13.55,30.21,30.22v58.78ZM263.15,142.82v64.71c0,6.67,5.42,12.09,12.09,12.09h68.88v-52.68c0-13.3-10.82-24.12-24.12-24.12h-56.86Z"/>
    <rect class="cls-2" x="300.59" y="121.11" width="6.1" height="120.22" transform="translate(-36.98 276.17) rotate(-46.41)"/>
  </g>
</svg>